{
    "asset" : {
        "generator" : "Khronos glTF Blender I/O v1.5.17",
        "version" : "2.0"
    },
    "scene" : 0,
    "scenes" : [
        {
            "name" : "Scene",
            "nodes" : [
                0
            ]
        }
    ],
    "nodes" : [
        {
            "mesh" : 0,
            "name" : "candyBag"
        }
    ],
    "materials" : [
        {
            "name" : "Beige",
            "pbrMetallicRoughness" : {
                "baseColorFactor" : [
                    0.7029160857200623,
                    0.4253237545490265,
                    0.20689357817173004,
                    1
                ],
                "metallicFactor" : 0,
                "roughnessFactor" : 0.5
            }
        },
        {
            "name" : "Blue",
            "pbrMetallicRoughness" : {
                "baseColorFactor" : [
                    0.1268673837184906,
                    0.4590684771537781,
                    1,
                    1
                ],
                "metallicFactor" : 0,
                "roughnessFactor" : 0.20000000298023224
            }
        },
        {
            "name" : "White.004",
            "pbrMetallicRoughness" : {
                "baseColorFactor" : [
                    0.799102783203125,
                    0.799102783203125,
                    0.799102783203125,
                    1
                ],
                "metallicFactor" : 0,
                "roughnessFactor" : 0.5
            }
        },
        {
            "name" : "Purple",
            "pbrMetallicRoughness" : {
                "baseColorFactor" : [
                    0.2597089111804962,
                    0.052060261368751526,
                    0.5798950791358948,
                    1
                ],
                "metallicFactor" : 0,
                "roughnessFactor" : 0.20000000298023224
            }
        },
        {
            "name" : "Yellow.003",
            "pbrMetallicRoughness" : {
                "baseColorFactor" : [
                    1,
                    0.5052202939987183,
                    0.017695415765047073,
                    1
                ],
                "metallicFactor" : 0,
                "roughnessFactor" : 0.20000000298023224
            }
        },
        {
            "name" : "Orange.002",
            "pbrMetallicRoughness" : {
                "baseColorFactor" : [
                    1,
                    0.16606298089027405,
                    0.017658168449997902,
                    1
                ],
                "metallicFactor" : 0,
                "roughnessFactor" : 0.20000000298023224
            }
        }
    ],
    "meshes" : [
        {
            "name" : "Cube.059",
            "primitives" : [
                {
                    "attributes" : {
                        "POSITION" : 0,
                        "NORMAL" : 1,
                        "TEXCOORD_0" : 2
                    },
                    "indices" : 3,
                    "material" : 0
                },
                {
                    "attributes" : {
                        "POSITION" : 4,
                        "NORMAL" : 5,
                        "TEXCOORD_0" : 6
                    },
                    "indices" : 7,
                    "material" : 1
                },
                {
                    "attributes" : {
                        "POSITION" : 8,
                        "NORMAL" : 9,
                        "TEXCOORD_0" : 10
                    },
                    "indices" : 11,
                    "material" : 2
                },
                {
                    "attributes" : {
                        "POSITION" : 12,
                        "NORMAL" : 13,
                        "TEXCOORD_0" : 14
                    },
                    "indices" : 15,
                    "material" : 3
                },
                {
                    "attributes" : {
                        "POSITION" : 16,
                        "NORMAL" : 17,
                        "TEXCOORD_0" : 18
                    },
                    "indices" : 19,
                    "material" : 4
                },
                {
                    "attributes" : {
                        "POSITION" : 20,
                        "NORMAL" : 21,
                        "TEXCOORD_0" : 22
                    },
                    "indices" : 23,
                    "material" : 5
                }
            ]
        }
    ],
    "accessors" : [
        {
            "bufferView" : 0,
            "componentType" : 5126,
            "count" : 308,
            "max" : [
                0.5730886459350586,
                0.6713218092918396,
                0.345472514629364
            ],
            "min" : [
                -0.5730886459350586,
                -0.5710155367851257,
                -0.345472514629364
            ],
            "type" : "VEC3"
        },
        {
            "bufferView" : 1,
            "componentType" : 5126,
            "count" : 308,
            "type" : "VEC3"
        },
        {
            "bufferView" : 2,
            "componentType" : 5126,
            "count" : 308,
            "type" : "VEC2"
        },
        {
            "bufferView" : 3,
            "componentType" : 5123,
            "count" : 708,
            "type" : "SCALAR"
        },
        {
            "bufferView" : 4,
            "componentType" : 5126,
            "count" : 12,
            "max" : [
                0.3493584394454956,
                0.47565144300460815,
                0.18454603850841522
            ],
            "min" : [
                -0.3493584394454956,
                0.4739299416542053,
                -0.18454600870609283
            ],
            "type" : "VEC3"
        },
        {
            "bufferView" : 5,
            "componentType" : 5126,
            "count" : 12,
            "type" : "VEC3"
        },
        {
            "bufferView" : 6,
            "componentType" : 5126,
            "count" : 12,
            "type" : "VEC2"
        },
        {
            "bufferView" : 7,
            "componentType" : 5123,
            "count" : 36,
            "type" : "SCALAR"
        },
        {
            "bufferView" : 8,
            "componentType" : 5126,
            "count" : 264,
            "max" : [
                0.527948796749115,
                0.7928817868232727,
                0.042266421020030975
            ],
            "min" : [
                -0.5782490968704224,
                0.4372496008872986,
                -0.2726934850215912
            ],
            "type" : "VEC3"
        },
        {
            "bufferView" : 9,
            "componentType" : 5126,
            "count" : 264,
            "type" : "VEC3"
        },
        {
            "bufferView" : 10,
            "componentType" : 5126,
            "count" : 264,
            "type" : "VEC2"
        },
        {
            "bufferView" : 11,
            "componentType" : 5123,
            "count" : 492,
            "type" : "SCALAR"
        },
        {
            "bufferView" : 12,
            "componentType" : 5126,
            "count" : 309,
            "max" : [
                0.49688711762428284,
                0.7968866229057312,
                0.23413841426372528
            ],
            "min" : [
                -0.5782490968704224,
                0.4502626061439514,
                -0.26609599590301514
            ],
            "type" : "VEC3"
        },
        {
            "bufferView" : 13,
            "componentType" : 5126,
            "count" : 309,
            "type" : "VEC3"
        },
        {
            "bufferView" : 14,
            "componentType" : 5126,
            "count" : 309,
            "type" : "VEC2"
        },
        {
            "bufferView" : 15,
            "componentType" : 5123,
            "count" : 696,
            "type" : "SCALAR"
        },
        {
            "bufferView" : 16,
            "componentType" : 5126,
            "count" : 126,
            "max" : [
                0.2053977996110916,
                0.6511417031288147,
                0.18665027618408203
            ],
            "min" : [
                -0.35213974118232727,
                0.3591182827949524,
                -0.13201381266117096
            ],
            "type" : "VEC3"
        },
        {
            "bufferView" : 17,
            "componentType" : 5126,
            "count" : 126,
            "type" : "VEC3"
        },
        {
            "bufferView" : 18,
            "componentType" : 5126,
            "count" : 126,
            "type" : "VEC2"
        },
        {
            "bufferView" : 19,
            "componentType" : 5123,
            "count" : 480,
            "type" : "SCALAR"
        },
        {
            "bufferView" : 20,
            "componentType" : 5126,
            "count" : 320,
            "max" : [
                0.2922998070716858,
                0.21177488565444946,
                0.445624977350235
            ],
            "min" : [
                -0.2923271954059601,
                -0.2563554048538208,
                0.27724698185920715
            ],
            "type" : "VEC3"
        },
        {
            "bufferView" : 21,
            "componentType" : 5126,
            "count" : 320,
            "type" : "VEC3"
        },
        {
            "bufferView" : 22,
            "componentType" : 5126,
            "count" : 320,
            "type" : "VEC2"
        },
        {
            "bufferView" : 23,
            "componentType" : 5123,
            "count" : 810,
            "type" : "SCALAR"
        }
    ],
    "bufferViews" : [
        {
            "buffer" : 0,
            "byteLength" : 3696,
            "byteOffset" : 0
        },
        {
            "buffer" : 0,
            "byteLength" : 3696,
            "byteOffset" : 3696
        },
        {
            "buffer" : 0,
            "byteLength" : 2464,
            "byteOffset" : 7392
        },
        {
            "buffer" : 0,
            "byteLength" : 1416,
            "byteOffset" : 9856
        },
        {
            "buffer" : 0,
            "byteLength" : 144,
            "byteOffset" : 11272
        },
        {
            "buffer" : 0,
            "byteLength" : 144,
            "byteOffset" : 11416
        },
        {
            "buffer" : 0,
            "byteLength" : 96,
            "byteOffset" : 11560
        },
        {
            "buffer" : 0,
            "byteLength" : 72,
            "byteOffset" : 11656
        },
        {
            "buffer" : 0,
            "byteLength" : 3168,
            "byteOffset" : 11728
        },
        {
            "buffer" : 0,
            "byteLength" : 3168,
            "byteOffset" : 14896
        },
        {
            "buffer" : 0,
            "byteLength" : 2112,
            "byteOffset" : 18064
        },
        {
            "buffer" : 0,
            "byteLength" : 984,
            "byteOffset" : 20176
        },
        {
            "buffer" : 0,
            "byteLength" : 3708,
            "byteOffset" : 21160
        },
        {
            "buffer" : 0,
            "byteLength" : 3708,
            "byteOffset" : 24868
        },
        {
            "buffer" : 0,
            "byteLength" : 2472,
            "byteOffset" : 28576
        },
        {
            "buffer" : 0,
            "byteLength" : 1392,
            "byteOffset" : 31048
        },
        {
            "buffer" : 0,
            "byteLength" : 1512,
            "byteOffset" : 32440
        },
        {
            "buffer" : 0,
            "byteLength" : 1512,
            "byteOffset" : 33952
        },
        {
            "buffer" : 0,
            "byteLength" : 1008,
            "byteOffset" : 35464
        },
        {
            "buffer" : 0,
            "byteLength" : 960,
            "byteOffset" : 36472
        },
        {
            "buffer" : 0,
            "byteLength" : 3840,
            "byteOffset" : 37432
        },
        {
            "buffer" : 0,
            "byteLength" : 3840,
            "byteOffset" : 41272
        },
        {
            "buffer" : 0,
            "byteLength" : 2560,
            "byteOffset" : 45112
        },
        {
            "buffer" : 0,
            "byteLength" : 1620,
            "byteOffset" : 47672
        }
    ],
    "buffers" : [
        {
            "byteLength" : 49292,
            "uri" : "data:application/octet-stream;base64,"
        }
    ]
}
